<?xml version="1.0" encoding="UTF-8"?>
<svg width="24px" height="18px" viewBox="0 0 24 18" version="1.1" xmlns="http://www.w3.org/2000/svg" xmlns:xlink="http://www.w3.org/1999/xlink">
    <!-- Generator: sketchtool 55.2 (78181) - https://sketchapp.com -->
    <title>9C3CD73E-C6C3-47BA-B7B7-FD25C8EDA60B</title>
    <desc>Created with sketchtool.</desc>
    <g id="Page-1" stroke="none" stroke-width="1" fill="none" fill-rule="evenodd">
        <g id="A2-/-CALCULADORA-/-NRO_PRESS" transform="translate(-593.000000, -423.000000)" fill="#FFFFFF">
            <path d="M614.003122,423 L601.016649,423 C600.716961,423 600.417274,423.1 600.217482,423.3 L593.224766,431.3 C592.925078,431.7 592.925078,432.2 593.224766,432.6 L600.217482,440.6 C600.417274,440.9 600.716961,441 601.016649,441 L614.003122,441 C615.701353,441 617,439.7 617,438 L617,426 C617,424.3 615.701353,423 614.003122,423 Z M615.002081,438 C615.002081,438.6 614.602497,439 614.003122,439 L601.516129,439 L595.422477,432 L601.516129,425 L614.003122,425 C614.602497,425 615.002081,425.4 615.002081,426 L615.002081,438 Z M611.705515,429.7 L609.407908,432 L611.705515,434.3 C612.105099,434.7 612.105099,435.3 611.705515,435.7 C611.505723,435.9 611.305931,436 611.006243,436 C610.706556,436 610.506764,435.9 610.306972,435.7 L608.009365,433.4 L605.711759,435.7 C605.511967,435.9 605.312175,436 605.012487,436 C604.712799,436 604.513007,435.9 604.313215,435.7 C603.913632,435.3 603.913632,434.7 604.313215,434.3 L606.610822,432 L604.313215,429.7 C603.913632,429.3 603.913632,428.7 604.313215,428.3 C604.712799,427.9 605.312175,427.9 605.711759,428.3 L608.009365,430.6 L610.306972,428.3 C610.706556,427.9 611.305931,427.9 611.705515,428.3 C612.105099,428.7 612.105099,429.3 611.705515,429.7 Z" id="Icons-/-ic_delete"></path>
        </g>
    </g>
</svg>